<svg xmlns="http://www.w3.org/2000/svg" width="960" height="560" viewBox="0 0 960 560">
<rect width="100%" height="100%" fill="white"/>
<text x="480.0" y="35" font-size="24" font-family="Arial, sans-serif" font-weight="bold" text-anchor="middle" fill="#111111">Decision Metric: Total Cost - 5A</text>
<text x="18" y="60" font-size="14" font-family="Arial, sans-serif" font-weight="normal" text-anchor="start" fill="#555555">Total cost</text>
<line x1="90" y1="440.0" x2="920" y2="440.0" stroke="#DDDDDD" stroke-width="1"/>
<text x="78" y="445.0" font-size="12" font-family="Arial, sans-serif" font-weight="normal" text-anchor="end" fill="#666666">0.00</text>
<line x1="90" y1="368.0" x2="920" y2="368.0" stroke="#DDDDDD" stroke-width="1"/>
<text x="78" y="373.0" font-size="12" font-family="Arial, sans-serif" font-weight="normal" text-anchor="end" fill="#666666">583210.31</text>
<line x1="90" y1="296.0" x2="920" y2="296.0" stroke="#DDDDDD" stroke-width="1"/>
<text x="78" y="301.0" font-size="12" font-family="Arial, sans-serif" font-weight="normal" text-anchor="end" fill="#666666">1166420.62</text>
<line x1="90" y1="224.00001525878906" x2="920" y2="224.00001525878906" stroke="#DDDDDD" stroke-width="1"/>
<text x="78" y="229.00001525878906" font-size="12" font-family="Arial, sans-serif" font-weight="normal" text-anchor="end" fill="#666666">1749630.75</text>
<line x1="90" y1="152.0" x2="920" y2="152.0" stroke="#DDDDDD" stroke-width="1"/>
<text x="78" y="157.0" font-size="12" font-family="Arial, sans-serif" font-weight="normal" text-anchor="end" fill="#666666">2332841.25</text>
<line x1="90" y1="80.0" x2="920" y2="80.0" stroke="#DDDDDD" stroke-width="1"/>
<text x="78" y="85.0" font-size="12" font-family="Arial, sans-serif" font-weight="normal" text-anchor="end" fill="#666666">2916051.50</text>
<line x1="90" y1="80" x2="90" y2="440" stroke="#444444" stroke-width="2"/>
<line x1="90" y1="440" x2="920" y2="440" stroke="#444444" stroke-width="2"/>
<rect x="123.2" y="240.76943969726562" width="99.6" height="199.23056030273438" fill="#F97316" rx="4" ry="4"/>
<text x="173.0" y="232.76943969726562" font-size="12" font-family="Arial, sans-serif" font-weight="normal" text-anchor="middle" fill="#333333">1613796.00</text>
<text x="173.0" y="464" font-size="12" font-family="Arial, sans-serif" font-weight="normal" text-anchor="middle" fill="#333333">baseline</text>
<rect x="289.2" y="243.78567504882812" width="99.6" height="196.21432495117188" fill="#F97316" rx="4" ry="4"/>
<text x="339.0" y="235.78567504882812" font-size="12" font-family="Arial, sans-serif" font-weight="normal" text-anchor="middle" fill="#333333">1589364.00</text>
<text x="339.0" y="464" font-size="12" font-family="Arial, sans-serif" font-weight="normal" text-anchor="middle" fill="#333333">point_tcn</text>
<rect x="455.2" y="126.95651245117188" width="99.6" height="313.0434875488281" fill="#F97316" rx="4" ry="4"/>
<text x="505.0" y="118.95651245117188" font-size="12" font-family="Arial, sans-serif" font-weight="normal" text-anchor="middle" fill="#333333">2535697.00</text>
<text x="505.0" y="464" font-size="12" font-family="Arial, sans-serif" font-weight="normal" text-anchor="middle" fill="#333333">quantile_q0.1</text>
<rect x="621.2" y="248.5966033935547" width="99.6" height="191.4033966064453" fill="#F97316" rx="4" ry="4"/>
<text x="671.0" y="240.5966033935547" font-size="12" font-family="Arial, sans-serif" font-weight="normal" text-anchor="middle" fill="#333333">1550395.00</text>
<text x="671.0" y="464" font-size="12" font-family="Arial, sans-serif" font-weight="normal" text-anchor="middle" fill="#333333">quantile_q0.5</text>
<rect x="787.2" y="299.2028503417969" width="99.6" height="140.79714965820312" fill="#F97316" rx="4" ry="4"/>
<text x="837.0" y="291.2028503417969" font-size="12" font-family="Arial, sans-serif" font-weight="normal" text-anchor="middle" fill="#333333">1140477.00</text>
<text x="837.0" y="464" font-size="12" font-family="Arial, sans-serif" font-weight="normal" text-anchor="middle" fill="#333333">quantile_q0.9</text>
</svg>