<svg xmlns="http://www.w3.org/2000/svg" width="960" height="560" viewBox="0 0 960 560">
<rect width="100%" height="100%" fill="white"/>
<text x="480.0" y="35" font-size="24" font-family="Arial, sans-serif" font-weight="bold" text-anchor="middle" fill="#111111">Decision Metric: Total Cost</text>
<text x="18" y="60" font-size="14" font-family="Arial, sans-serif" font-weight="normal" text-anchor="start" fill="#555555">Total cost</text>
<line x1="90" y1="440.0" x2="920" y2="440.0" stroke="#DDDDDD" stroke-width="1"/>
<text x="78" y="445.0" font-size="12" font-family="Arial, sans-serif" font-weight="normal" text-anchor="end" fill="#666666">0.00</text>
<line x1="90" y1="368.0" x2="920" y2="368.0" stroke="#DDDDDD" stroke-width="1"/>
<text x="78" y="373.0" font-size="12" font-family="Arial, sans-serif" font-weight="normal" text-anchor="end" fill="#666666">1607.70</text>
<line x1="90" y1="296.0" x2="920" y2="296.0" stroke="#DDDDDD" stroke-width="1"/>
<text x="78" y="301.0" font-size="12" font-family="Arial, sans-serif" font-weight="normal" text-anchor="end" fill="#666666">3215.40</text>
<line x1="90" y1="223.99998474121094" x2="920" y2="223.99998474121094" stroke="#DDDDDD" stroke-width="1"/>
<text x="78" y="228.99998474121094" font-size="12" font-family="Arial, sans-serif" font-weight="normal" text-anchor="end" fill="#666666">4823.10</text>
<line x1="90" y1="152.00003051757812" x2="920" y2="152.00003051757812" stroke="#DDDDDD" stroke-width="1"/>
<text x="78" y="157.00003051757812" font-size="12" font-family="Arial, sans-serif" font-weight="normal" text-anchor="end" fill="#666666">6430.80</text>
<line x1="90" y1="80.0" x2="920" y2="80.0" stroke="#DDDDDD" stroke-width="1"/>
<text x="78" y="85.0" font-size="12" font-family="Arial, sans-serif" font-weight="normal" text-anchor="end" fill="#666666">8038.50</text>
<line x1="90" y1="80" x2="90" y2="440" stroke="#444444" stroke-width="2"/>
<line x1="90" y1="440" x2="920" y2="440" stroke="#444444" stroke-width="2"/>
<rect x="123.2" y="185.9376678466797" width="99.6" height="254.0623321533203" fill="#F97316" rx="4" ry="4"/>
<text x="173.0" y="177.9376678466797" font-size="12" font-family="Arial, sans-serif" font-weight="normal" text-anchor="middle" fill="#333333">5673.00</text>
<text x="173.0" y="464" font-size="12" font-family="Arial, sans-serif" font-weight="normal" text-anchor="middle" fill="#333333">baseline</text>
<rect x="289.2" y="136.49560546875" width="99.6" height="303.50439453125" fill="#F97316" rx="4" ry="4"/>
<text x="339.0" y="128.49560546875" font-size="12" font-family="Arial, sans-serif" font-weight="normal" text-anchor="middle" fill="#333333">6777.00</text>
<text x="339.0" y="464" font-size="12" font-family="Arial, sans-serif" font-weight="normal" text-anchor="middle" fill="#333333">point_tcn</text>
<rect x="455.2" y="126.95654296875" width="99.6" height="313.04345703125" fill="#F97316" rx="4" ry="4"/>
<text x="505.0" y="118.95654296875" font-size="12" font-family="Arial, sans-serif" font-weight="normal" text-anchor="middle" fill="#333333">6990.00</text>
<text x="505.0" y="464" font-size="12" font-family="Arial, sans-serif" font-weight="normal" text-anchor="middle" fill="#333333">quantile_q0.1</text>
<rect x="621.2" y="127.71786499023438" width="99.6" height="312.2821350097656" fill="#F97316" rx="4" ry="4"/>
<text x="671.0" y="119.71786499023438" font-size="12" font-family="Arial, sans-serif" font-weight="normal" text-anchor="middle" fill="#333333">6973.00</text>
<text x="671.0" y="464" font-size="12" font-family="Arial, sans-serif" font-weight="normal" text-anchor="middle" fill="#333333">quantile_q0.5</text>
<rect x="787.2" y="262.25042724609375" width="99.6" height="177.7495880126953" fill="#F97316" rx="4" ry="4"/>
<text x="837.0" y="254.25042724609375" font-size="12" font-family="Arial, sans-serif" font-weight="normal" text-anchor="middle" fill="#333333">3969.00</text>
<text x="837.0" y="464" font-size="12" font-family="Arial, sans-serif" font-weight="normal" text-anchor="middle" fill="#333333">quantile_q0.9</text>
</svg>