<svg xmlns="http://www.w3.org/2000/svg" width="1200" height="760" viewBox="0 0 1200 760">
<rect width="100%" height="100%" fill="white"/>
<text x="600.0" y="38" font-size="24" font-family="Arial, sans-serif" font-weight="bold" text-anchor="middle" fill="#111827">Forecast quality (MAE): M4 vs M5A</text>
<text x="600.0" y="65" font-size="14" font-family="Arial, sans-serif" font-weight="normal" text-anchor="middle" fill="#4B5563">Raw MAE values for baseline, point TCN and quantile TCN forecasts</text>
<text x="22" y="92" font-size="14" font-family="Arial, sans-serif" font-weight="normal" text-anchor="start" fill="#4B5563">MAE (raw)</text>
<line x1="90" y1="560.0" x2="1140" y2="560.0" stroke="#E5E7EB" stroke-width="1"/>
<text x="78" y="565.0" font-size="12" font-family="Arial, sans-serif" font-weight="normal" text-anchor="end" fill="#6B7280">0.00</text>
<line x1="90" y1="471.0" x2="1140" y2="471.0" stroke="#E5E7EB" stroke-width="1"/>
<text x="78" y="476.0" font-size="12" font-family="Arial, sans-serif" font-weight="normal" text-anchor="end" fill="#6B7280">0.33</text>
<line x1="90" y1="382.0" x2="1140" y2="382.0" stroke="#E5E7EB" stroke-width="1"/>
<text x="78" y="387.0" font-size="12" font-family="Arial, sans-serif" font-weight="normal" text-anchor="end" fill="#6B7280">0.65</text>
<line x1="90" y1="293.0" x2="1140" y2="293.0" stroke="#E5E7EB" stroke-width="1"/>
<text x="78" y="298.0" font-size="12" font-family="Arial, sans-serif" font-weight="normal" text-anchor="end" fill="#6B7280">0.98</text>
<line x1="90" y1="204.00000000000006" x2="1140" y2="204.00000000000006" stroke="#E5E7EB" stroke-width="1"/>
<text x="78" y="209.00000000000006" font-size="12" font-family="Arial, sans-serif" font-weight="normal" text-anchor="end" fill="#6B7280">1.30</text>
<line x1="90" y1="115.0" x2="1140" y2="115.0" stroke="#E5E7EB" stroke-width="1"/>
<text x="78" y="120.0" font-size="12" font-family="Arial, sans-serif" font-weight="normal" text-anchor="end" fill="#6B7280">1.63</text>
<line x1="90" y1="115" x2="90" y2="560" stroke="#374151" stroke-width="2"/>
<line x1="90" y1="560" x2="1140" y2="560" stroke="#374151" stroke-width="2"/>
<rect x="135.5" y="300.240201837239" width="106.19" height="259.759798162761" fill="#1D4ED8" rx="4" ry="4"/>
<text x="188.595" y="292.240201837239" font-size="11" font-family="Arial, sans-serif" font-weight="normal" text-anchor="middle" fill="#1F2937">0.949</text>
<rect x="265.0" y="173.04347826086956" width="106.19" height="386.95652173913044" fill="#F97316" rx="4" ry="4"/>
<text x="318.095" y="165.04347826086956" font-size="11" font-family="Arial, sans-serif" font-weight="normal" text-anchor="middle" fill="#1F2937">1.413</text>
<text x="265.0" y="584" font-size="12" font-family="Arial, sans-serif" font-weight="normal" text-anchor="middle" fill="#374151">Baseline</text>
<rect x="485.5" y="358.33355216899463" width="106.19" height="201.6664478310054" fill="#1D4ED8" rx="4" ry="4"/>
<text x="538.595" y="350.33355216899463" font-size="11" font-family="Arial, sans-serif" font-weight="normal" text-anchor="middle" fill="#1F2937">0.737</text>
<rect x="615.0" y="264.6562679446449" width="106.19" height="295.3437320553551" fill="#F97316" rx="4" ry="4"/>
<text x="668.095" y="256.6562679446449" font-size="11" font-family="Arial, sans-serif" font-weight="normal" text-anchor="middle" fill="#1F2937">1.079</text>
<text x="615.0" y="584" font-size="12" font-family="Arial, sans-serif" font-weight="normal" text-anchor="middle" fill="#374151">Point TCN</text>
<rect x="835.5" y="360.86861922542505" width="106.19" height="199.13138077457498" fill="#1D4ED8" rx="4" ry="4"/>
<text x="888.595" y="352.86861922542505" font-size="11" font-family="Arial, sans-serif" font-weight="normal" text-anchor="middle" fill="#1F2937">0.727</text>
<rect x="965.0" y="264.82323160309" width="106.19" height="295.17676839691" fill="#F97316" rx="4" ry="4"/>
<text x="1018.095" y="256.82323160309" font-size="11" font-family="Arial, sans-serif" font-weight="normal" text-anchor="middle" fill="#1F2937">1.078</text>
<text x="965.0" y="584" font-size="12" font-family="Arial, sans-serif" font-weight="normal" text-anchor="middle" fill="#374151">Quantile TCN (median)</text>
<rect x="435.0" y="630" width="18" height="18" fill="#1D4ED8" rx="3" ry="3"/>
<text x="461.0" y="644" font-size="13" font-family="Arial, sans-serif" font-weight="normal" text-anchor="start" fill="#374151">Milestone 4</text>
<rect x="625.0" y="630" width="18" height="18" fill="#F97316" rx="3" ry="3"/>
<text x="651.0" y="644" font-size="13" font-family="Arial, sans-serif" font-weight="normal" text-anchor="start" fill="#374151">Milestone 5A</text>
</svg>