<svg xmlns="http://www.w3.org/2000/svg" width="1200" height="760" viewBox="0 0 1200 760">
<rect width="100%" height="100%" fill="white"/>
<text x="600.0" y="38" font-size="24" font-family="Arial, sans-serif" font-weight="bold" text-anchor="middle" fill="#111827">Quantile calibration: Milestone 4 vs 5A</text>
<text x="600.0" y="65" font-size="14" font-family="Arial, sans-serif" font-weight="normal" text-anchor="middle" fill="#4B5563">Empirical coverage for quantile model compared to target coverage</text>
<text x="22" y="92" font-size="14" font-family="Arial, sans-serif" font-weight="normal" text-anchor="start" fill="#4B5563">Coverage</text>
<line x1="90" y1="560.0" x2="1140" y2="560.0" stroke="#E5E7EB" stroke-width="1"/>
<text x="78" y="565.0" font-size="12" font-family="Arial, sans-serif" font-weight="normal" text-anchor="end" fill="#6B7280">0.00</text>
<line x1="90" y1="471.0" x2="1140" y2="471.0" stroke="#E5E7EB" stroke-width="1"/>
<text x="78" y="476.0" font-size="12" font-family="Arial, sans-serif" font-weight="normal" text-anchor="end" fill="#6B7280">0.20</text>
<line x1="90" y1="382.0" x2="1140" y2="382.0" stroke="#E5E7EB" stroke-width="1"/>
<text x="78" y="387.0" font-size="12" font-family="Arial, sans-serif" font-weight="normal" text-anchor="end" fill="#6B7280">0.40</text>
<line x1="90" y1="293.0" x2="1140" y2="293.0" stroke="#E5E7EB" stroke-width="1"/>
<text x="78" y="298.0" font-size="12" font-family="Arial, sans-serif" font-weight="normal" text-anchor="end" fill="#6B7280">0.60</text>
<line x1="90" y1="204.0" x2="1140" y2="204.0" stroke="#E5E7EB" stroke-width="1"/>
<text x="78" y="209.0" font-size="12" font-family="Arial, sans-serif" font-weight="normal" text-anchor="end" fill="#6B7280">0.80</text>
<line x1="90" y1="115.0" x2="1140" y2="115.0" stroke="#E5E7EB" stroke-width="1"/>
<text x="78" y="120.0" font-size="12" font-family="Arial, sans-serif" font-weight="normal" text-anchor="end" fill="#6B7280">1.00</text>
<line x1="90" y1="115" x2="90" y2="560" stroke="#374151" stroke-width="2"/>
<line x1="90" y1="560" x2="1140" y2="560" stroke="#374151" stroke-width="2"/>
<rect x="124.125" y="523.7056737588653" width="53.095" height="36.294326241134755" fill="#7C3AED" rx="4" ry="4"/>
<text x="150.6725" y="515.7056737588653" font-size="11" font-family="Arial, sans-serif" font-weight="normal" text-anchor="middle" fill="#1F2937">0.082</text>
<rect x="188.875" y="515.5" width="53.095" height="44.5" fill="#9CA3AF" rx="4" ry="4"/>
<text x="215.4225" y="507.5" font-size="11" font-family="Arial, sans-serif" font-weight="normal" text-anchor="middle" fill="#1F2937">0.100</text>
<rect x="253.625" y="516.1195678315244" width="53.095" height="43.88043216847564" fill="#0F766E" rx="4" ry="4"/>
<text x="280.1725" y="508.11956783152436" font-size="11" font-family="Arial, sans-serif" font-weight="normal" text-anchor="middle" fill="#1F2937">0.099</text>
<text x="221.25" y="584" font-size="12" font-family="Arial, sans-serif" font-weight="normal" text-anchor="middle" fill="#374151">q=0.1</text>
<rect x="386.625" y="333.89311043566363" width="53.095" height="226.10688956433637" fill="#7C3AED" rx="4" ry="4"/>
<text x="413.1725" y="325.89311043566363" font-size="11" font-family="Arial, sans-serif" font-weight="normal" text-anchor="middle" fill="#1F2937">0.508</text>
<rect x="451.375" y="337.5" width="53.095" height="222.5" fill="#9CA3AF" rx="4" ry="4"/>
<text x="477.9225" y="329.5" font-size="11" font-family="Arial, sans-serif" font-weight="normal" text-anchor="middle" fill="#1F2937">0.500</text>
<rect x="516.125" y="320.22282870108955" width="53.095" height="239.77717129891045" fill="#0F766E" rx="4" ry="4"/>
<text x="542.6725" y="312.22282870108955" font-size="11" font-family="Arial, sans-serif" font-weight="normal" text-anchor="middle" fill="#1F2937">0.539</text>
<text x="483.75" y="584" font-size="12" font-family="Arial, sans-serif" font-weight="normal" text-anchor="middle" fill="#374151">q=0.5</text>
<rect x="649.125" y="168.65248226950354" width="53.095" height="391.34751773049646" fill="#7C3AED" rx="4" ry="4"/>
<text x="675.6725" y="160.65248226950354" font-size="11" font-family="Arial, sans-serif" font-weight="normal" text-anchor="middle" fill="#1F2937">0.879</text>
<rect x="713.875" y="159.5" width="53.095" height="400.5" fill="#9CA3AF" rx="4" ry="4"/>
<text x="740.4225" y="151.5" font-size="11" font-family="Arial, sans-serif" font-weight="normal" text-anchor="middle" fill="#1F2937">0.900</text>
<rect x="778.625" y="155.28237865194387" width="53.095" height="404.7176213480561" fill="#0F766E" rx="4" ry="4"/>
<text x="805.1725" y="147.28237865194387" font-size="11" font-family="Arial, sans-serif" font-weight="normal" text-anchor="middle" fill="#1F2937">0.909</text>
<text x="746.25" y="584" font-size="12" font-family="Arial, sans-serif" font-weight="normal" text-anchor="middle" fill="#374151">q=0.9</text>
<rect x="911.625" y="204.94680851063828" width="53.095" height="355.0531914893617" fill="#7C3AED" rx="4" ry="4"/>
<text x="938.1725" y="196.94680851063828" font-size="11" font-family="Arial, sans-serif" font-weight="normal" text-anchor="middle" fill="#1F2937">0.798</text>
<rect x="976.375" y="204.0" width="53.095" height="356.0" fill="#9CA3AF" rx="4" ry="4"/>
<text x="1002.9225" y="196.0" font-size="11" font-family="Arial, sans-serif" font-weight="normal" text-anchor="middle" fill="#1F2937">0.800</text>
<rect x="1041.125" y="199.1628108204195" width="53.095" height="360.8371891795805" fill="#0F766E" rx="4" ry="4"/>
<text x="1067.6725" y="191.1628108204195" font-size="11" font-family="Arial, sans-serif" font-weight="normal" text-anchor="middle" fill="#1F2937">0.811</text>
<text x="1008.75" y="584" font-size="12" font-family="Arial, sans-serif" font-weight="normal" text-anchor="middle" fill="#374151">10-90 interval</text>
<rect x="340.0" y="630" width="18" height="18" fill="#7C3AED" rx="3" ry="3"/>
<text x="366.0" y="644" font-size="13" font-family="Arial, sans-serif" font-weight="normal" text-anchor="start" fill="#374151">Milestone 4</text>
<rect x="530.0" y="630" width="18" height="18" fill="#9CA3AF" rx="3" ry="3"/>
<text x="556.0" y="644" font-size="13" font-family="Arial, sans-serif" font-weight="normal" text-anchor="start" fill="#374151">Target coverage</text>
<rect x="720.0" y="630" width="18" height="18" fill="#0F766E" rx="3" ry="3"/>
<text x="746.0" y="644" font-size="13" font-family="Arial, sans-serif" font-weight="normal" text-anchor="start" fill="#374151">Milestone 5A</text>
</svg>